<?xml version="1.0" standalone="no"?>
<!DOCTYPE svg PUBLIC "-//W3C//DTD SVG 20010904//EN"
 "http://www.w3.org/TR/2001/REC-SVG-20010904/DTD/svg10.dtd">
<svg version="1.0" xmlns="http://www.w3.org/2000/svg"
 width="1968.000000pt" height="1968.000000pt" viewBox="0 0 1968.000000 1968.000000"
 preserveAspectRatio="xMidYMid meet">
<metadata>
Created by potrace 1.14, written by Peter Selinger 2001-2017
</metadata>
<g transform="translate(0.000000,1968.000000) scale(0.100000,-0.100000)"
fill="#000000" stroke="none">
<path d="M9508 19675 c-2 -1 -75 -6 -163 -9 -88 -4 -173 -9 -190 -11 -16 -2
-70 -6 -120 -10 -49 -3 -108 -8 -130 -10 -83 -8 -151 -15 -180 -19 -16 -2 -57
-7 -90 -11 -93 -10 -156 -19 -290 -40 -49 -7 -110 -17 -135 -20 -25 -4 -67
-11 -95 -16 -27 -6 -61 -12 -75 -15 -14 -2 -36 -7 -50 -9 -14 -3 -38 -8 -55
-11 -236 -42 -654 -147 -985 -247 -210 -63 -646 -218 -755 -267 -24 -11 -48
-20 -52 -20 -4 -1 -26 -9 -48 -20 -22 -11 -44 -19 -48 -20 -5 0 -38 -13 -74
-30 -35 -16 -66 -30 -68 -30 -2 0 -43 -18 -92 -41 -48 -22 -113 -52 -143 -66
-194 -88 -619 -312 -788 -415 -34 -21 -65 -38 -68 -38 -3 0 -35 -19 -72 -43
-37 -24 -92 -58 -122 -77 -59 -36 -337 -220 -410 -271 -25 -17 -65 -46 -90
-63 -24 -17 -51 -36 -60 -43 -8 -7 -73 -56 -145 -109 -127 -95 -320 -249 -380
-303 -16 -14 -43 -37 -60 -50 -38 -29 -219 -190 -349 -310 -156 -144 -484
-480 -626 -641 -30 -35 -62 -70 -71 -79 -24 -24 -272 -323 -305 -367 -16 -22
-31 -41 -34 -44 -3 -3 -46 -59 -96 -125 -290 -384 -538 -767 -774 -1190 -82
-148 -283 -551 -349 -700 -29 -66 -60 -135 -68 -153 -25 -56 -125 -296 -127
-307 -2 -5 -8 -23 -15 -40 -11 -29 -27 -72 -89 -240 -139 -376 -334 -1093
-387 -1420 -3 -16 -10 -50 -15 -75 -11 -49 -64 -382 -75 -470 -4 -30 -9 -63
-11 -74 -2 -10 -6 -44 -9 -75 -3 -31 -8 -69 -10 -86 -2 -16 -6 -61 -10 -100
-3 -38 -8 -83 -10 -100 -21 -170 -39 -582 -39 -900 0 -327 9 -555 30 -795 3
-36 7 -85 9 -110 7 -96 24 -242 40 -360 3 -19 7 -55 10 -80 3 -25 7 -56 10
-70 3 -14 7 -45 10 -70 3 -25 7 -52 10 -60 2 -8 6 -37 10 -65 3 -27 15 -95 25
-150 11 -55 21 -111 24 -125 2 -14 7 -36 10 -50 3 -14 8 -36 10 -50 31 -171
145 -627 208 -830 94 -305 241 -727 300 -860 11 -25 24 -54 28 -65 5 -11 27
-65 50 -120 92 -220 271 -592 395 -820 62 -115 196 -348 216 -377 11 -14 19
-28 19 -31 0 -12 228 -363 347 -535 119 -171 378 -512 479 -632 212 -250 232
-272 349 -399 146 -158 406 -421 515 -521 19 -18 62 -58 96 -89 169 -156 349
-308 553 -468 80 -63 153 -120 161 -126 123 -96 542 -386 670 -463 36 -21 67
-41 70 -44 4 -5 163 -99 290 -173 190 -110 547 -295 755 -392 211 -98 604
-260 790 -325 129 -45 462 -156 515 -171 25 -7 50 -14 55 -15 374 -109 778
-202 1130 -260 136 -22 137 -22 185 -29 25 -3 56 -8 70 -10 14 -2 45 -7 70
-10 25 -3 61 -7 80 -10 107 -14 154 -19 255 -29 54 -5 179 -16 235 -21 52 -4
275 -17 355 -21 104 -5 675 -5 785 0 111 5 310 16 360 21 19 2 69 6 110 9 79
7 152 14 210 21 19 2 64 7 100 11 36 3 74 8 85 10 11 2 43 6 70 9 28 3 61 8
75 10 14 2 70 11 125 20 158 25 176 28 340 59 72 14 171 34 220 45 50 11 105
23 124 26 19 3 37 8 41 10 3 2 17 6 31 9 84 15 391 98 589 158 179 55 592 197
675 233 17 7 98 40 180 73 384 155 763 340 1158 566 104 59 232 135 285 168
133 84 416 269 422 277 3 3 41 31 85 61 135 92 484 358 595 454 20 17 60 51
90 76 202 168 657 598 785 744 6 6 44 47 85 91 431 461 880 1061 1210 1615
102 171 151 259 254 450 303 562 574 1236 760 1884 40 136 142 541 160 631 4
17 9 41 12 55 9 44 52 264 57 295 6 35 36 218 42 255 2 14 6 45 10 70 3 25 8
56 10 70 4 24 10 71 21 170 2 25 7 61 9 80 3 19 7 62 10 95 3 33 8 76 10 95 3
19 7 73 10 120 4 47 8 112 10 145 24 348 24 982 1 1265 -3 30 -7 98 -11 150
-3 53 -7 105 -9 117 -3 12 -7 58 -11 103 -4 45 -8 91 -11 103 -2 11 -6 48 -9
81 -3 34 -8 72 -10 86 -2 14 -6 43 -9 65 -10 75 -15 110 -36 240 -30 187 -30
189 -35 205 -2 8 -7 31 -10 50 -3 19 -8 46 -10 60 -3 14 -7 35 -9 46 -3 12
-14 66 -26 120 -12 55 -24 110 -26 124 -17 86 -106 430 -150 580 -14 47 -29
99 -34 115 -56 212 -286 829 -410 1100 -5 11 -34 76 -66 145 -127 279 -309
625 -482 915 -245 411 -616 937 -888 1255 -203 238 -238 277 -384 434 -158
170 -480 484 -626 613 -89 78 -143 125 -164 144 -20 17 -169 141 -250 206
-400 327 -999 723 -1491 986 -163 87 -610 307 -624 307 -2 0 -32 13 -67 29
-35 16 -103 46 -153 66 -49 21 -104 44 -122 51 -92 41 -376 144 -614 224 -468
157 -1189 327 -1639 385 -25 3 -52 8 -60 10 -8 2 -44 6 -80 10 -36 4 -76 8
-90 10 -14 2 -50 6 -80 10 -30 3 -66 8 -80 10 -14 2 -61 7 -105 10 -44 3 -96
8 -115 10 -32 3 -86 7 -305 21 -75 5 -842 13 -847 9z"/>
</g>
</svg>
